#N canvas 202 166 717 562 10;
#X obj 428 413 print, f 9;
#X obj 384 416 mtof;
#X obj 378 497 dac~;
#N canvas 0 23 450 300 simple 0;
#X obj 111 133 osc~ 440;
#X obj 210 121 vline~;
#X msg 210 91 0 2 \, 1 10 3 \, 0 300 6;
#X obj 202 161 *~;
#X obj 149 19 inlet;
#X obj 149 41 t b f;
#X obj 183 223 *~;
#X obj 188 259 outlet~;
#X connect 0 0 6 1;
#X connect 1 0 3 1;
#X connect 1 0 3 0;
#X connect 2 0 1 0;
#X connect 3 0 6 0;
#X connect 4 0 5 0;
#X connect 5 0 2 0;
#X connect 5 1 0 0;
#X connect 6 0 7 0;
#X restore 383 454 pd simple;
#N canvas 210 203 326 445 metronome 0;
#X obj 68 226 snapshot~;
#X obj 94 191 bang~;
#X obj 80 279 i;
#X obj 80 344 change, f 7;
#X floatatom 68 130 5 0 0 0 - - -;
#X floatatom 63 71 5 0 350 0 - - -;
#X obj 64 100 / 60;
#X msg 132 61 0;
#X obj 117 20 loadbang;
#X obj 68 158 phasor~ 1;
#X msg 93 50 60;
#X obj 48 19 inlet;
#X obj 79 392 outlet;
#X text 124 279 divide clock into steps;
#X obj 137 365 change;
#X obj 137 387 print;
#X obj 80 257 * 360;
#X connect 0 0 16 0;
#X connect 1 0 0 0;
#X connect 2 0 3 0;
#X connect 3 0 12 0;
#X connect 4 0 9 0;
#X connect 5 0 6 0;
#X connect 6 0 4 0;
#X connect 7 0 9 1;
#X connect 8 0 7 0;
#X connect 8 0 10 0;
#X connect 9 0 0 0;
#X connect 10 0 5 0;
#X connect 11 0 5 0;
#X connect 14 0 15 0;
#X connect 16 0 2 0;
#X restore 456 182 pd metronome;
#X floatatom 451 150 5 0 0 0 - - -;
#X msg 502 158 0;
#X msg 546 150 60;
#X obj 456 246 s beat-clock;
#X msg 542 125 1000;
#X msg 506 123 500;
#X obj 274 131 r beat-clock;
#X obj 159 228 clocker;
#X msg 167 172 start;
#X msg 154 153 start-sync;
#N canvas 0 23 450 300 simple 0;
#X obj 111 133 osc~ 440;
#X obj 210 121 vline~;
#X msg 210 91 0 2 \, 1 10 3 \, 0 300 6;
#X obj 202 161 *~;
#X obj 149 19 inlet;
#X obj 149 41 t b f;
#X obj 183 223 *~;
#X obj 188 259 outlet~;
#X connect 0 0 6 1;
#X connect 1 0 3 1;
#X connect 1 0 3 0;
#X connect 2 0 1 0;
#X connect 3 0 6 0;
#X connect 4 0 5 0;
#X connect 5 0 2 0;
#X connect 5 1 0 0;
#X connect 6 0 7 0;
#X restore 466 451 pd simple;
#X obj 295 226 <;
#X obj 295 252 sel 1;
#X obj 298 191 t f f;
#X msg 156 410 600;
#X msg 295 288 400;
#X obj 157 318 <;
#X obj 157 344 sel 1;
#X obj 160 283 t f f;
#X obj 86 367 print;
#X msg 75 63 length 720;
#X msg 95 84 length 360;
#X msg 116 106 length 180;
#X msg 133 132 length 60;
#X floatatom 385 34 5 0 0 0 - - -;
#X floatatom 387 84 5 0 0 0 - - -;
#X obj 387 59 fixer;
#X obj 395 108 print;
#X obj 456 213 fixer;
#X floatatom 405 234 5 0 0 0 - - -;
#X floatatom 401 189 5 0 0 0 - - -;
#X connect 1 0 3 0;
#X connect 3 0 2 0;
#X connect 4 0 33 0;
#X connect 5 0 4 0;
#X connect 6 0 4 0;
#X connect 7 0 4 0;
#X connect 9 0 4 0;
#X connect 10 0 4 0;
#X connect 11 0 12 0;
#X connect 11 0 18 0;
#X connect 12 0 23 0;
#X connect 13 0 12 0;
#X connect 14 0 12 0;
#X connect 15 0 2 1;
#X connect 16 0 17 0;
#X connect 17 0 20 0;
#X connect 18 0 16 1;
#X connect 18 1 16 0;
#X connect 19 0 3 0;
#X connect 20 0 15 0;
#X connect 21 0 22 0;
#X connect 22 0 19 0;
#X connect 23 0 21 1;
#X connect 23 1 21 0;
#X connect 25 0 12 0;
#X connect 26 0 12 0;
#X connect 27 0 12 0;
#X connect 28 0 12 0;
#X connect 29 0 31 0;
#X connect 30 0 32 0;
#X connect 31 0 30 0;
#X connect 33 0 8 0;
#X connect 33 0 34 0;
#X connect 35 0 33 0;
