#N canvas 552 147 717 562 10;
#X obj 384 416 mtof;
#X obj 378 497 dac~;
#N canvas 0 23 450 300 simple 0;
#X obj 111 133 osc~ 440;
#X obj 210 121 vline~;
#X msg 210 91 0 2 \, 1 10 3 \, 0 300 6;
#X obj 202 161 *~;
#X obj 149 19 inlet;
#X obj 149 41 t b f;
#X obj 183 223 *~;
#X obj 188 259 outlet~;
#X connect 0 0 6 1;
#X connect 1 0 3 1;
#X connect 1 0 3 0;
#X connect 2 0 1 0;
#X connect 3 0 6 0;
#X connect 4 0 5 0;
#X connect 5 0 2 0;
#X connect 5 1 0 0;
#X connect 6 0 7 0;
#X restore 383 454 pd simple;
#N canvas 181 202 326 445 metronome 0;
#X obj 68 226 snapshot~;
#X obj 94 191 bang~;
#X obj 69 340 i;
#X floatatom 68 130 5 0 0 0 - - -;
#X floatatom 63 71 5 0 350 0 - - -;
#X obj 64 100 / 60;
#X msg 132 61 0;
#X obj 117 20 loadbang;
#X obj 68 158 phasor~ 1;
#X msg 93 50 60;
#X obj 48 19 inlet;
#X obj 79 392 outlet;
#X obj 66 318 * 360;
#X obj 119 250 * 24;
#X obj 119 271 i;
#X obj 119 292 / 24;
#X text 124 321 divide clock into 360 steps;
#X obj 70 365 change -1;
#X connect 0 0 12 0;
#X connect 1 0 0 0;
#X connect 2 0 17 0;
#X connect 3 0 8 0;
#X connect 4 0 5 0;
#X connect 5 0 3 0;
#X connect 6 0 8 1;
#X connect 7 0 6 0;
#X connect 7 0 9 0;
#X connect 8 0 0 0;
#X connect 9 0 4 0;
#X connect 10 0 4 0;
#X connect 12 0 2 0;
#X connect 13 0 14 0;
#X connect 14 0 15 0;
#X connect 17 0 11 0;
#X restore 456 182 pd metronome;
#X floatatom 451 150 5 0 0 0 - - -;
#X msg 502 158 0;
#X msg 546 150 60;
#X obj 456 264 s beat-clock;
#X msg 542 125 1000;
#X msg 506 123 500;
#X obj 313 199 r beat-clock;
#X obj 160 241 clocker;
#X msg 151 145 start;
#X msg 136 123 start-sync;
#N canvas 0 23 450 300 simple 0;
#X obj 111 133 osc~ 440;
#X obj 210 121 vline~;
#X msg 210 91 0 2 \, 1 10 3 \, 0 300 6;
#X obj 202 161 *~;
#X obj 149 19 inlet;
#X obj 149 41 t b f;
#X obj 183 223 *~;
#X obj 188 259 outlet~;
#X connect 0 0 6 1;
#X connect 1 0 3 1;
#X connect 1 0 3 0;
#X connect 2 0 1 0;
#X connect 3 0 6 0;
#X connect 4 0 5 0;
#X connect 5 0 2 0;
#X connect 5 1 0 0;
#X connect 6 0 7 0;
#X restore 466 451 pd simple;
#X msg 156 410 600;
#X msg 424 349 400;
#X msg 64 36 length 720;
#X msg 84 57 length 360;
#X msg 105 79 length 180;
#X msg 121 101 length 60;
#X floatatom 385 34 5 0 0 0 - - -;
#X floatatom 387 84 5 0 0 0 - - -;
#X obj 387 59 fixer;
#X obj 395 108 print;
#X obj 456 213 fixer;
#X floatatom 410 265 5 0 0 0 - - -;
#X msg 39 15 length 240;
#X obj 157 344 sel 0;
#X obj 424 313 sel 0;
#X floatatom 186 281 5 0 0 0 - - -;
#X obj 208 325 print;
#X msg 210 191 loop \$1;
#X obj 210 170 tgl 15 0 empty empty empty 17 7 0 10 -262144 -1 -1 1
1;
#X msg 162 167 stop;
#X connect 0 0 2 0;
#X connect 2 0 1 0;
#X connect 3 0 25 0;
#X connect 4 0 3 0;
#X connect 5 0 3 0;
#X connect 6 0 3 0;
#X connect 8 0 3 0;
#X connect 9 0 3 0;
#X connect 10 0 11 0;
#X connect 11 0 28 0;
#X connect 11 0 30 0;
#X connect 12 0 11 0;
#X connect 13 0 11 0;
#X connect 14 0 1 1;
#X connect 15 0 2 0;
#X connect 16 0 14 0;
#X connect 17 0 11 0;
#X connect 18 0 11 0;
#X connect 19 0 11 0;
#X connect 20 0 11 0;
#X connect 21 0 23 0;
#X connect 22 0 24 0;
#X connect 23 0 22 0;
#X connect 25 0 7 0;
#X connect 25 0 26 0;
#X connect 26 0 29 0;
#X connect 27 0 11 0;
#X connect 28 0 15 0;
#X connect 29 0 16 0;
#X connect 32 0 11 0;
#X connect 33 0 32 0;
#X connect 34 0 11 0;
